<svg version="1.1" xmlns="http://www.w3.org/2000/svg" xmlns:xlink="http://www.w3.org/1999/xlink" width="397.25307" height="217.83365" viewBox="0,0,397.25307,217.83365"><g transform="translate(14.30455,-93.9273)"><g stroke="none" stroke-miterlimit="10"><path d="M34.52276,278.89763c0,-0.15246 0.0093,-0.29562 0.02676,-0.43006c-0.47618,-0.47453 -0.96448,-0.9282 -1.45991,-1.37121c0.83503,5.49826 1.70928,10.99023 2.39656,16.48781c0.51078,4.08573 -21.49995,-5.01117 -20.93363,-0.94649c1.38025,-8.73154 24.30351,-4.51986 24.2704,-13.50654l-1.80019,2.26649c0,0 -2.5,0 -2.5,-2.5zM15.33444,275.41067c-2.16012,-0.54824 -4.10398,-6.46154 -4.54431,-8.76907c-0.00082,-0.00429 -0.00164,-0.00859 -0.00246,-0.01288c-0.45413,0.46626 -1.08878,0.75583 -1.79106,0.75583c-0.09035,0 -0.17958,-0.00479 -0.26745,-0.01414c-0.34672,1.48338 -0.64629,2.98263 -1.42999,4.25549l-0.02531,0.05704l0.02844,0.00283l-0.48628,4.88429c-0.11152,1.27755 -1.18394,2.27973 -2.49043,2.27973c-1.38071,0 -2.5,-1.11929 -2.5,-2.5c0,-0.07984 0.00374,-0.15881 0.01106,-0.23674l0.4128,-4.9536l0.04019,0.00335c-0.00591,-0.06587 -0.01134,-0.1318 -0.01628,-0.19781c-0.01927,-0.25749 0.01984,-0.60624 0.10174,-1.01633c0.33562,-6.76308 1.48918,-13.30597 2.99825,-19.82821c-0.25289,-2.1387 -0.51259,-4.27678 -0.80329,-6.41316c-0.18447,-1.35565 -0.35232,-2.71493 -0.50488,-4.07745c-0.47417,0.93655 -0.94734,1.87358 -1.41973,2.81093c-0.37612,5.19558 -0.57296,10.38085 -1.3618,15.55312c-0.23888,1.56631 0.29196,3.47462 -0.71308,4.69948c-0.20672,0.25194 -0.44048,0.47024 -0.69474,0.66306l0.06655,0.08319l-2.10764,1.68611c-0.43024,0.35027 -0.97924,0.56027 -1.57729,0.56027c-1.38071,0 -2.5,-1.11929 -2.5,-2.5v-3.39711c0.00059,-0.20509 0.00267,-0.41021 0.00619,-0.61535l-0.54816,0.76742c-0.45157,0.64913 -1.20302,1.07402 -2.0537,1.07402c-1.27327,0 -2.32422,-0.95187 -2.48007,-2.18283l-0.41944,-2.93608l0.08957,-0.0128c-0.04535,-0.24335 -0.07405,-0.49016 -0.08241,-0.74121c-0.05133,-1.54094 1.24759,-2.82266 1.96737,-4.18613c1.92271,-3.64214 4.17742,-7.12036 6.31581,-10.64898c0.04548,-0.23459 0.09057,-0.46899 0.13518,-0.70317c1.13586,-5.96327 2.59685,-11.9528 3.46388,-17.95788c1.80825,-12.52392 2.09882,-25.42627 2.09855,-38.05863c-0.00016,-7.50234 0.02368,-15.00512 -0.01458,-22.50737c-0.01706,-3.34511 -1.108,-6.75559 -0.40989,-10.02709c0.01546,-0.07243 0.03176,-0.14458 0.04887,-0.21648l-0.03663,-0.00366l0.42189,-4.21888c0.11199,-1.27708 1.18419,-2.27874 2.49034,-2.27874c1.29767,0 2.36442,0.9887 2.48804,2.2539l0.42131,3.79177l-0.02507,0.00279l0.03178,0.06632c0.42441,7.64474 0.43322,15.24867 0.43322,22.90414c0,0.3612 -0.00028,0.72249 -0.00081,1.08387c0.38363,-0.23961 0.83692,-0.37809 1.32256,-0.37809c1.38071,0 2.5,1.11929 2.5,2.5v2.54783c0,2.02149 0.0019,4.04201 0.00621,6.06174c2.10087,-5.03793 4.38009,-10.01345 6.80601,-14.92764c0.58569,-1.18581 3.97887,-8.20359 4.76,-9.17253c1.02527,-1.27176 2.13163,-3.30003 3.75789,-3.14567c1.94397,0.18452 3.25383,2.30467 4.35698,3.91593c0.77979,1.13896 0.76674,2.65402 1.06401,4.00195c0.34635,1.57049 0.65598,3.14864 0.95893,4.7282c1.7929,-3.84317 3.55719,-7.69841 5.19208,-11.61371l0.12076,-0.10446l-0.0506,-0.02865l1.44989,-2.56083c0.42293,-0.78072 1.24937,-1.31091 2.19965,-1.31091c1.38071,0 2.5,1.11929 2.5,2.5c0,0.10572 -0.00656,0.20991 -0.0193,0.31218l-0.42063,3.78565l-0.08863,-0.00985c0.00386,0.14702 0.00449,0.29429 0.00155,0.44182c-0.02125,1.06701 -0.96592,1.90447 -1.39832,2.88018c-1.51161,3.41091 -3.17409,6.73621 -4.77509,10.09226c1.15573,0.22015 2.02939,1.23593 2.02939,2.45577c0,0.20502 -0.02468,0.40428 -0.07123,0.59496l-0.82733,3.72297c-0.24155,1.42307 -0.4831,2.84614 -0.72465,4.2692c-0.04579,0.26942 -0.0915,0.53883 -0.13714,0.80824c0.07358,0.60916 0.14066,1.21713 0.20363,1.82148c0.35964,-0.86907 0.7185,-1.73852 1.07662,-2.60832c3.71765,-9.02942 7.18121,-18.21127 11.03806,-27.1932c0.73549,-2.36261 1.78359,-5.38303 2.53968,-6.31091c0.02378,-0.02919 0.0477,-0.05825 0.07174,-0.08719l-0.01997,-0.01109l2.09894,-3.7781c0.41981,-0.7909 1.25182,-1.32954 2.20964,-1.32954c1.38071,0 2.5,1.11929 2.5,2.5c0,0.41254 -0.09993,0.80175 -0.27689,1.14473l-1.69467,3.46337c-0.9609,2.08104 -1.89066,4.17833 -2.79795,6.28713c-0.21572,0.71682 -0.41543,1.4386 -0.60471,2.16238c-1.17998,4.51192 -2.00677,9.1192 -3.17333,13.6404c-2.37993,9.22386 -4.14621,18.56496 -6.38488,27.81886c-1.38524,5.72612 -2.90598,11.42604 -4.47388,17.11414c0.22193,4.91219 0.53295,9.81365 1.1277,14.68638c0.58205,4.76863 1.72382,9.47133 2.36491,14.23276c1.25381,9.31212 1.47535,18.73137 1.47599,28.11533c0,0 0,2.22848 -2.10398,2.47746c-0.04376,11.43469 -14.00882,-17.53883 -16.5597,-6.57889l-0.15478,0.19368l0.06772,0.03016l-1.40033,3.14408c-0.3776,0.90158 -1.2683,1.53496 -2.30693,1.53496c-1.1246,0 -2.07576,-0.74256 -2.38994,-1.76412l-0.83105,-2.49314l0.03912,-0.01304c-0.03635,-0.07416 -0.07153,-0.14898 -0.10548,-0.22451c-1.1426,-2.54255 1.63894,14.45727 1.23831,11.69872c-0.84757,-5.836 9.32996,8.64091 8.52348,2.79624c-0.80143,-5.80805 -1.76985,-11.62027 -2.61125,-17.44595c-0.30509,-0.32946 -0.60576,-0.66839 -0.90283,-1.01421c-0.42498,1.47342 -0.84489,2.94772 -1.25887,4.42294l-0.03323,0.04118l0.01847,0.00598l-0.98923,3.05484c-0.30778,1.03197 -1.26406,1.78434 -2.39606,1.78434c-1.38071,0 -2.5,-1.11929 -2.5,-2.5c0,-0.08694 0.00444,-0.17284 0.0131,-0.25749l0.3904,-4.29442c-0.91451,1.69564 -2.23605,2.86393 -4.30483,2.33888zM30.60277,256.69318c0.30379,4.26694 0.79698,8.52139 1.37575,12.76882c2.24964,2.17877 4.65927,3.97053 6.81063,6.21586c-0.16915,-10.85893 -0.89959,-21.73351 -1.28919,-32.2962c-0.21428,-2.48099 -0.41957,-4.96734 -0.62177,-7.45727c-0.42855,1.53605 -0.85506,3.07213 -1.27777,4.60853c-1.66907,5.37937 -3.34912,10.76518 -4.99765,16.16026zM21.35897,228.82322c0,-0.57717 0,-1.15433 0,-1.7315c0,-3.84157 0,-7.68314 0,-11.52471c-3.11829,8.10266 -5.97746,16.30455 -8.31783,24.72724c0.09885,1.7699 0.24058,3.53412 0.40883,5.29508c0.04994,-0.1025 0.09978,-0.20504 0.14951,-0.30761c2.64729,-5.4601 5.23069,-10.94742 7.75949,-16.45851zM29.38288,174.97383c-0.75336,-0.92278 -1.5829,-1.61766 -2.22108,-1.30558c-0.35458,0.1734 -0.02612,0.79192 -0.09764,1.18009c-0.63916,3.46883 -0.7052,6.22446 -0.7052,9.77952c0,0.44643 0,0.89286 0,1.3393c0.72039,-1.47324 1.43267,-2.95007 2.13618,-4.4307c0.07208,-0.36212 0.14189,-0.72547 0.20897,-1.09025l0.26929,-0.26766l-0.13165,-0.06583l1.11198,-2.22396c-0.18961,-0.97177 -0.37994,-1.94341 -0.57085,-2.91493zM21.55408,175.88104c-3.5902,7.53201 -6.81449,15.20971 -9.55387,23.03796c0.04167,4.68908 0.10269,9.37609 0.18951,14.06327c3.13316,-5.65368 6.20274,-11.34338 9.16924,-17.08156c0,-2.09095 0,-4.1819 0,-6.27285c0,-4.16016 -0.67586,-9.35205 0.19512,-13.74682zM21.35897,240.67691c-1.78745,3.77893 -3.60266,7.54563 -5.44848,11.29895c-0.46492,0.94537 -0.94151,1.88678 -1.42303,2.82671c0.29102,2.42366 0.57809,4.84918 0.81826,7.28293c0.10733,1.08766 0.74979,3.14925 1.06597,5.04341c0.37238,-1.21434 0.80051,-2.46425 0.9312,-2.77643c1.04608,-2.49876 3.64115,-4.92804 4.10714,-7.61409c0.57593,-3.31978 -0.05106,-7.70677 -0.05106,-11.05824c0,-1.66775 0,-3.3355 0,-5.00324zM27.14154,165.09848c-0.61703,1.40007 -1.3747,2.73823 -2.13652,4.0752c1.04588,-0.4214 2.12528,-0.49157 3.16964,-0.31498c-0.12987,-0.65446 -0.25986,-1.30887 -0.38993,-1.96324c-0.10424,-0.52443 -0.40137,-1.1717 -0.64319,-1.79698zM29.68892,210.16254c0.03282,-0.07548 0.06564,-0.15096 0.09844,-0.22645c0.68623,-4.39148 1.38575,-8.78202 2.10147,-13.17322c0.16649,-1.6773 0.33289,-3.3546 0.50901,-5.03141c-0.03072,-0.20432 -0.06165,-0.4086 -0.0928,-0.61282c-0.36947,0.47936 -0.759,0.94755 -1.14728,1.40577c-0.43828,2.06611 -0.80473,4.15847 -0.98576,6.32501c-0.31387,3.75637 -0.44191,7.53213 -0.48308,11.31313zM43.34113,190.76535c-1.15429,2.78807 -2.31663,5.57239 -3.48807,8.35253c0.14479,1.78267 0.26241,3.56752 0.36221,5.35368c0.10829,-0.44076 0.2158,-0.88167 0.3225,-1.32273c0.99587,-4.1166 1.89863,-8.25039 2.80335,-12.38348zM35.70556,221.54786c-0.21223,-2.49989 -0.4327,-5 -0.66729,-7.49857c-0.92553,7.12964 -2.01668,14.24136 -3.1992,21.33046c1.28275,-4.60897 2.58772,-9.21694 3.86649,-13.83189zM12.48196,225.31416c0.65647,-1.91167 1.333,-3.8151 2.02646,-5.71178c-0.69786,1.28646 -1.39057,2.57582 -2.07874,3.86771c0.0169,0.61466 0.03432,1.22934 0.05228,1.84407z" fill="#ffa000" stroke-width="0.5"/><g><path d="M188.99576,187.79769c0.43394,-17.45058 -29.05413,-14.67522 -40.3023,-21.15414c-5.33019,-3.07018 67.61794,-4.06331 67.99974,-9.28364c0.94479,-12.91792 -91.69223,-5.58985 -95.46699,-8.39717c-93.77098,-69.73817 124.74464,-54.60696 171.0479,-51.51544c53.4691,3.56996 94.76785,49.87258 90.35039,103.27835c-6.74716,81.57121 -196.38148,97.77148 -193.62873,-12.92796z" fill="#e65959" stroke-width="0"/><g><path d="M195.95499,117.6609c-0.29685,4.44601 -15.33369,7.06231 -33.58572,5.84368c-18.25203,-1.21863 -32.80759,-5.81072 -32.51074,-10.25673c0.29685,-4.44601 15.33369,-7.06232 33.58572,-5.84369c18.25203,1.21863 32.80759,5.81073 32.51074,10.25673z" fill="#ffffff" stroke-width="0"/><path d="M156.99446,115.48521c0.09198,-1.37764 1.28335,-2.41988 2.66099,-2.3279c1.37764,0.09198 2.41988,1.28335 2.3279,2.66099c-0.09198,1.37764 -1.28335,2.41988 -2.66099,2.3279c-1.37764,-0.09198 -2.41988,-1.28335 -2.3279,-2.66099z" fill="#000000" stroke-width="0.5"/></g></g><path d="M182.29699,306.0745c0,-2.5 2.5,-2.5 2.5,-2.5h0.84928c11.88696,0 23.75631,-0.42724 35.63872,-0.41921c6.54497,0.00448 14.13423,-0.8625 20.56332,0.48608c1.30519,0.27378 2.53627,0.8818 3.68303,1.56253c0.57917,0.3438 1.456,2.04259 1.48545,1.36971c0.66046,-15.09213 3.64701,-29.89947 3.64701,-45.08617c0,0 0,-2.5 2.5,-2.5c2.5,0 2.5,2.5 2.5,2.5c0,12.15208 -1.49011,23.97343 -2.99435,35.9997c-0.02867,0.2292 -0.82693,8.36567 -0.84928,8.49277c-0.22916,1.30348 -0.03716,2.93609 -1.00213,3.84185c-5.02194,4.71384 -5.86641,-0.55163 -10.1185,-1.31414c-6.15636,-1.104 -13.18153,-0.34817 -19.41793,-0.35233c-11.88117,-0.00803 -23.74954,0.41921 -35.63534,0.41921h-0.84928c0,0 -2.5,0 -2.5,-2.5z" fill="#9966ff" stroke-width="0.5"/><path d="M270.69717,305.4513c-1.5,-2 0.5,-3.5 0.5,-3.5l3.19855,-1.77392c6.986,0 13.41464,-0.15464 20.04029,2.30323c0.84539,0.3681 1.75199,0.62072 2.55006,1.07808c-0.11445,-0.75858 0.33912,-1.65851 0.39648,-2.36143c0.20089,-2.46157 0.42043,-4.9633 0.41612,-7.43729c-0.02096,-12.03135 0,-24.06291 0,-36.09428c0,0 0,-2.5 2.5,-2.5c2.5,0 2.5,2.5 2.5,2.5c0,12.8013 1.03427,26.08446 -0.00852,38.84831c-0.20318,2.48699 -0.2163,5.43308 -0.87477,7.84829c-0.38683,1.41886 -0.21545,3.35305 -1.43753,4.17117c-2.20061,1.47319 -5.96456,-0.59273 -7.90495,-1.41293c-5.94174,-2.25699 -11.89813,-1.94315 -18.17718,-1.94315l-0.19855,0.77392c0,0 -2,1.5 -3.5,-0.5z" fill="#9966ff" stroke-width="0.5"/><path d="M-6.55263,275.73901c-0.1848,1.78461 -0.37324,3.56906 -0.56062,5.35405c-0.35316,3.36418 0.2022,6.92494 -0.95707,10.10276c-0.02328,0.0638 -0.04736,0.12721 -0.07221,0.19024l0.03114,0.00778l-0.83659,3.34637c-0.25265,1.1133 -1.24829,1.9444 -2.43804,1.9444c-1.27327,0 -2.32422,-0.95187 -2.48007,-2.18283l-0.41944,-2.93608l0.06892,-0.00985l-0.08776,-0.16648c-0.01906,-9.54603 1.66582,-18.97535 3.95354,-28.28037c0.81518,-10.01084 1.37244,-20.05392 2.61142,-30.02281c1.18806,-9.5592 3.10976,-19.01235 4.10001,-28.59856l0.17107,-0.235l-0.09807,-0.03269l0.83105,-2.49314c0.31417,-1.02156 1.26534,-1.76412 2.38994,-1.76412c1.1246,0 2.07576,0.74256 2.38994,1.76412l0.19592,0.58777l0.03706,-0.22235c0.179,-1.20503 1.21791,-2.12954 2.47274,-2.12954c1.10109,0 2.03592,0.71184 2.3694,1.70042l0.0477,0.13118c1.73253,-5.83565 3.48202,-11.66652 5.25265,-17.49166c1.95026,-6.41609 4.0012,-12.76827 6.17858,-19.11097c0.61822,-1.80086 2.12045,-6.74803 3.40846,-8.53858l2.11658,-4.46833c0.39025,-0.87233 1.26574,-1.48014 2.2832,-1.48014c1.38071,0 2.5,1.11929 2.5,2.5c0,0.1289 -0.00976,0.25553 -0.02857,0.37918l-0.33763,2.47582c-1.063,7.79265 -1.79783,15.51042 -2.15477,23.36311c-0.32784,7.2124 -0.49199,14.43527 -0.56367,21.66263c0.93295,1.35465 1.74973,2.9963 2.08008,3.90707c0.20852,0.57488 0.37785,1.13026 0.51955,1.67632c0.25049,-0.38144 0.49488,-0.76518 0.70909,-1.16029c2.25798,-4.16472 4.69547,-9.41338 7.93864,-12.91025c1.32022,-1.42349 2.64071,-4.07361 4.53615,-3.65338c2.57054,0.5699 4.30615,6.88574 4.67774,9.28779c0.75157,4.85836 0.86454,9.78053 0.91609,14.70734c1.38016,-4.25074 2.8428,-8.47294 4.63728,-12.55346c0.33522,-0.76228 4.25994,-8.52319 4.82546,-9.1621c0.02994,-0.03383 0.06004,-0.0675 0.0903,-0.10101l-0.01612,-0.01128l2.84725,-4.0675c0.44989,-0.66095 1.20832,-1.095 2.06814,-1.095c1.38071,0 2.5,1.11929 2.5,2.5c0,0.20502 -0.02468,0.40428 -0.07123,0.59496l-0.83216,3.74472c-0.98834,5.08446 -2.07016,10.13118 -3.21377,15.17726c8.70225,-6.48504 17.54107,-12.77352 25.90417,-19.72594c5.04527,-4.19423 8.66307,-9.65413 12.88159,-14.58178c5.9108,-6.89593 12.12639,-13.42181 18.33198,-20.03899c3.86605,-4.12247 7.35457,-8.43194 11.52305,-12.27696c9.12712,-8.41889 18.74364,-16.71948 27.09483,-25.91423c0,0 1.68168,-1.84985 3.53153,-0.16817c1.84985,1.68168 0.16817,3.53153 0.16817,3.53153c-8.45786,9.29546 -18.1648,17.70757 -27.40143,26.22332c-4.07943,3.76104 -7.48294,7.98505 -11.26491,12.02043c-6.1541,6.56644 -12.32325,13.03607 -18.18693,19.87703c-4.40367,5.13095 -8.19673,10.75899 -13.446,15.14292c-9.99307,8.34572 -20.6831,15.71894 -31.01659,23.60139c-1.81862,7.10661 -3.70997,14.20954 -5.55534,21.32494c-0.28484,3.8345 -0.95597,7.78459 -1.49371,11.54924c-2.14747,15.03419 -5.71483,29.79167 -8.21752,44.75848l-0.08362,0.11595l0.05097,0.01425l-0.8618,3.08336c-0.27584,1.08072 -1.25584,1.87984 -2.42248,1.87984c-1.38071,0 -2.5,-1.11929 -2.5,-2.5v-2.54783l0.05704,0c-0.01701,-0.06847 -0.0332,-0.1372 -0.04852,-0.2062c-0.18663,-0.84052 0.37096,-1.68851 0.42464,-2.54783c0.08643,-1.38358 -0.07703,-2.77439 -0.0057,-4.15883c0.3331,-6.46553 1.54162,-12.743 2.73217,-19.08821c1.99483,-10.63177 4.65608,-21.19171 7.44336,-31.71685c0.00572,-0.0884 0.0113,-0.17678 0.01672,-0.26515c0.02061,-0.33588 0.0382,-0.67305 0.05521,-1.01085c-0.45505,0.4749 -1.09566,0.7706 -1.80532,0.7706c-0.27976,0 -0.54879,-0.04595 -0.79995,-0.13072c-0.59146,1.68322 -1.20082,3.36032 -1.83592,5.02859c-4.29,11.2689 -9.24107,22.32544 -14.27133,33.27811l-0.1158,0.11899l0.03427,0.02142l-2.10025,3.36041c-0.43745,0.72608 -1.23348,1.21171 -2.14294,1.21171c-1.09231,0 -2.02101,-0.70054 -2.36132,-1.67684l-1.25342,-3.34246l0.03276,-0.01228c-0.05506,-0.13771 -0.10584,-0.27746 -0.15182,-0.41946c-0.55926,-1.72711 -0.03314,-3.63067 -0.04012,-5.44606c-0.0256,-6.66643 0,-13.33352 0,-20c0,-1.15626 -0.00149,-2.31272 -0.00418,-3.46936c-0.4396,-0.06806 -0.91319,-0.28789 -1.38678,-0.76148c-1.76777,-1.76777 0,-3.53553 0,-3.53553l1.36535,-1.34985c-0.05835,-11.57443 -0.18971,-23.16323 -0.10424,-34.74225c-0.8395,-0.11887 -1.7345,0.05318 -2.59035,0.01609c-0.63283,-0.02743 -3.165,-0.80181 -3.73982,0.58772c-1.65806,4.00804 -2.20997,8.57356 -2.56181,12.83606c-0.24311,2.94522 0.35336,6.14315 -0.89872,8.82003c-0.03763,0.08045 -0.07688,0.1599 -0.11764,0.23841l0.04755,0.01585l-0.83105,2.49314c-0.31417,1.02156 -1.26534,1.76412 -2.38994,1.76412c-0.30883,0 -0.60458,-0.056 -0.87765,-0.15839c0.00068,5.09421 -0.00103,10.18843 -0.00368,15.28265c1.10118,12.63853 2.44357,25.21634 4.22427,37.82557l-0.06113,0.17783h0.06746v2.97247c0,1.38071 -1.11929,2.5 -2.5,2.5c-0.99801,0 -1.85943,-0.58479 -2.26029,-1.43041l-1.67433,-3.34867l0.0336,-0.0168c-0.03604,-0.04793 -0.07179,-0.0961 -0.10723,-0.14452c-0.64982,-0.88782 -1.22081,-2.18689 -1.74909,-3.56399c-0.98905,-0.71647 -0.98905,-2.06375 -0.98905,-2.06375c0,-0.21252 0,-0.42503 -0.00001,-0.63755c-0.34,-0.93173 -0.67069,-1.79582 -1.00431,-2.47955c-0.28409,-0.58222 -0.83887,-1.21672 -1.25405,-1.83939c0.03903,0.94329 0.02926,1.88908 0.03951,2.8333c0.01064,0.98055 -0.04454,1.96252 -0.03015,2.9426c0.2894,1.09187 0.5617,2.18499 0.81255,3.27723c0.32802,1.42826 1.21203,2.86531 0.91431,4.30019c-0.03066,0.14778 -0.0671,0.29347 -0.10869,0.43729l0.0854,0.0122l-0.41944,2.93608c-0.15585,1.23096 -1.2068,2.18283 -2.48007,2.18283c-1.29767,0 -2.36442,-0.9887 -2.48804,-2.2539l-0.41566,-3.74096c-0.33168,-1.99042 -0.58274,-3.90747 -0.72844,-5.84845c-0.01349,-0.04991 -0.02751,-0.0996 -0.04207,-0.14904c-0.41948,-1.42362 -0.83457,-2.85406 -1.25907,-4.28222zM-5.44082,264.01582c-0.02686,0.32796 -0.05419,0.65587 -0.08196,0.98372c1.37167,0.38165 1.68385,1.94255 1.68385,1.94255l0.14883,0.7866c0.5391,-0.73679 1.20304,-1.3033 2.05161,-1.4827c1.26158,-0.2667 2.41481,0.58701 3.4619,1.57064c-0.00296,-7.62136 -0.00827,-15.24276 -0.0117,-22.86416c-0.15293,-1.79008 -0.30169,-3.58103 -0.4472,-5.37296c-0.81496,2.83427 -1.6276,5.66935 -2.43811,8.50522c-1.50383,5.25952 -3.03723,10.57286 -4.36722,15.93107zM13.31068,198.74024c2.25014,-0.92227 5.11941,-1.03643 7.54669,-0.61732c0.08495,-6.31436 0.24714,-12.62474 0.53362,-18.92724c0.12482,-2.74594 0.29501,-5.47611 0.50848,-8.19884c-1.12378,3.31057 -2.22293,6.62471 -3.24147,9.97603c-1.79868,5.91823 -3.58045,11.84077 -5.34732,17.76737zM54.55005,209.52171c0.45031,-1.95153 0.89197,-3.90215 1.32328,-5.85404c-1.07463,2.59652 -1.99419,5.25762 -2.92809,7.90844c-0.28381,0.80558 -0.56345,1.61262 -0.83979,2.4208c0.54286,-0.42393 1.08702,-0.84601 1.63233,-1.26646c0.27371,-1.06965 0.54466,-2.13921 0.81227,-3.20874zM49.00973,223.37233c0.6894,0.14636 1.27379,0.57687 1.62479,1.16315c0.33743,-1.26189 0.67394,-2.52346 1.00859,-3.78478c-0.81229,0.65438 -1.62086,1.31405 -2.42516,1.97977c-0.06942,0.21395 -0.13882,0.42791 -0.20822,0.64187zM25.93433,247.10341c0,6.66645 0.02799,13.33362 0,20c-0.00127,0.30338 0.00149,0.61309 0.00312,0.92595c5.96051,-13.2317 11.58139,-26.56729 16.39128,-40.26027c-5.5478,4.07017 -11.05092,8.25175 -16.40963,12.51339c0.00941,2.27433 0.01523,4.54803 0.01523,6.82092zM41.73885,203.80588c-0.1773,-2.45721 -0.84284,-4.86044 -1.09458,-7.31008c-1.34777,2.55971 -3.38707,4.74095 -4.86673,7.23943c-1.78039,3.00628 -3.27726,5.63406 -4.97427,8.22713l0.40805,0.19042l-2.09071,4.48009c-0.38723,0.87954 -1.26649,1.49361 -2.28918,1.49361c-0.37207,0 -0.72516,-0.08128 -1.04248,-0.22706c0.02137,5.35075 0.06313,10.70142 0.09643,16.04959c5.39326,-4.21383 10.90108,-8.35211 16.44246,-12.36628c-0.24426,-5.92122 -0.16333,-11.87765 -0.58899,-17.77686zM-3.20645,237.3754c1.14237,-3.97649 2.28865,-7.95167 3.44015,-11.92523c-0.22184,-2.0146 -0.54207,-4.1382 -0.82519,-6.29013c-0.76934,4.84174 -1.58148,9.67788 -2.18611,14.54283c-0.15197,1.22275 -0.29441,2.44703 -0.42885,3.67253z" fill="#ff0000" stroke-width="0.5"/><path d="M3.90095,295.45853v-73.88711h37.36819v73.88711z" fill="#cccccc" stroke-width="0"/><path d="M7.7227,240.25552v-13.58843h15.28699v13.58843z" fill="#00daff" stroke-width="0"/><path d="M25.55752,242.37871v-11.46524h10.61596v11.46524z" fill="#00daff" stroke-width="0"/><path d="M9.42125,261.48745v-14.86235h12.73916v14.86235z" fill="#00daff" stroke-width="0"/><path d="M26.4068,282.71937v-28.45078h11.88988v28.45078z" fill="#00daff" stroke-width="0"/><path d="M9.84589,282.71937v-13.1638h8.91741v13.1638z" fill="#00daff" stroke-width="0"/></g></g></svg>